<?xml version="1.0" encoding="utf-8"?>
<!-- Generator: Adobe Illustrator 26.0.3, SVG Export Plug-In . SVG Version: 6.00 Build 0)  -->
<svg version="1.1" id="Слой_1" xmlns="http://www.w3.org/2000/svg" xmlns:xlink="http://www.w3.org/1999/xlink" x="0px" y="0px"
	 viewBox="0 0 800 600" style="enable-background:new 0 0 800 600;" xml:space="preserve">
<style type="text/css">
	.st0{fill-rule:evenodd;clip-rule:evenodd;fill:none;}
</style>
<path class="st0" d="M335.07,182.51c0,0-79.38-12.42-122-37c0,0,54.15-26.73,136-34c0,0,11.18-22.68,52-22c37,0.62,48,21,48,21
	c0,0,113.48,19.5,137.86,35.07c0.14-1.07-51.67,25.08-123.86,36.93c0,0,93.01,298.17,92,301c-2.48,6.97-39.97,27-135,27
	c-121.37,0-159.39-11.72-177-27C240.65,481.41,335.07,182.51,335.07,182.51z"/>
</svg>
